<?xml version="1.0" standalone="no"?>
<!DOCTYPE svg PUBLIC "-//W3C//DTD SVG 20010904//EN"
 "add-add-plus-sign.svg">
<svg version="1.0" xmlns="http://www.w3.org/2000/svg"
 width="200.000000pt" height="200.000000pt" viewBox="0 0 200.000000 200.000000"
 preserveAspectRatio="xMidYMid meet">

<g transform="translate(0.000000,200.000000) scale(0.100000,-0.100000)"
fill="#000000" stroke="none">
<path d="M812 1855 c-604 -138 -879 -841 -529 -1355 223 -327 670 -459 1045
-309 271 108 481 367 532 655 16 90 8 298 -14 379 -79 282 -297 512 -574 605
-90 31 -108 33 -247 36 -104 2 -169 -1 -213 -11z m345 -81 c368 -76 633 -400
633 -774 0 -433 -355 -789 -788 -790 -534 -1 -920 529 -752 1033 129 385 516
612 907 531z"/>
<path d="M972 1498 c-9 -9 -12 -75 -12 -235 l0 -223 -226 -2 c-203 -3 -228 -5
-238 -21 -8 -12 -8 -22 0 -35 10 -15 35 -17 237 -20 l227 -2 2 -227 c3 -202 5
-227 20 -237 13 -8 23 -8 35 0 16 10 18 35 21 237 l2 227 227 2 c202 3 227 5
237 20 8 13 8 23 0 35 -10 16 -35 18 -238 21 l-226 2 0 223 c0 229 -3 247 -40
247 -9 0 -21 -5 -28 -12z"/>
</g>
</svg>
