<?xml version="1.0" standalone="no"?>
<!DOCTYPE svg PUBLIC "-//W3C//DTD SVG 20010904//EN"
 "http://www.w3.org/TR/2001/REC-SVG-20010904/DTD/svg10.dtd">
<svg version="1.0" xmlns="http://www.w3.org/2000/svg"
 width="128.000000pt" height="128.000000pt" viewBox="0 0 128.000000 128.000000"
 preserveAspectRatio="xMidYMid meet">

<g transform="translate(0.000000,128.000000) scale(0.100000,-0.100000)"
fill="#000000" stroke="none">
<path d="M413 1136 l-173 -71 0 -76 0 -75 -55 -23 c-42 -17 -69 -39 -120 -97
-36 -41 -65 -79 -65 -84 0 -6 27 -23 60 -40 l60 -30 2 -162 3 -162 258 -125
257 -124 248 118 c136 66 253 123 260 128 9 7 12 53 12 168 l0 159 61 30 c33
17 59 35 57 41 -2 5 -30 42 -63 83 -52 62 -69 76 -127 100 l-68 28 0 72 0 71
-208 73 c-114 40 -211 72 -217 71 -5 -1 -88 -33 -182 -73z m369 -31 c85 -29
146 -56 138 -59 -8 -3 -47 -17 -87 -30 l-71 -24 -142 61 -143 62 59 27 c33 15
67 25 76 22 10 -3 87 -29 170 -59z m-216 -71 c71 -31 130 -58 132 -59 2 -2
-24 -12 -57 -23 l-60 -20 -130 56 c-72 31 -131 59 -131 62 0 7 80 38 101 39 9
1 74 -24 145 -55z m-88 -101 l82 -35 0 -94 c0 -52 -3 -94 -7 -94 -4 0 -67 24
-140 53 l-133 52 0 102 0 103 58 -26 c31 -14 94 -41 140 -61z m500 -20 l-3
-107 -94 -38 c-52 -21 -96 -38 -98 -38 -2 0 -3 51 -3 113 l0 113 93 31 c50 17
96 32 100 32 4 1 6 -47 5 -106z m-238 -87 l0 -113 -51 -22 c-81 -33 -89 -23
-89 102 l0 103 63 21 c34 12 65 22 70 22 4 1 7 -50 7 -113z m325 17 c-28 -20
-45 -16 -45 11 0 24 2 24 32 14 29 -10 30 -12 13 -25z m-825 7 c0 -18 -3 -19
-21 -9 -17 9 -19 13 -8 20 22 14 29 11 29 -11z m137 -117 c123 -48 223 -91
223 -94 0 -3 -24 -32 -53 -64 l-54 -59 -216 99 c-119 55 -217 102 -217 106 0
9 80 99 88 99 4 1 107 -39 229 -87z m802 41 c23 -26 41 -50 41 -54 0 -4 -97
-51 -217 -106 l-216 -98 -54 58 c-29 33 -53 62 -53 65 0 7 428 180 447 180 6
1 30 -20 52 -45z m-842 -231 l166 -77 58 64 59 65 0 -237 0 -237 -230 112
-230 111 0 138 c0 76 2 138 5 138 3 0 80 -35 172 -77z m783 -62 c0 -102 -3
-140 -12 -144 -7 -3 -111 -53 -230 -111 l-218 -105 0 237 0 237 59 -65 58 -64
164 76 c90 42 167 77 172 77 4 1 7 -62 7 -138z"/>
<path d="M447 403 c-4 -3 -7 -33 -7 -65 l0 -59 56 -25 c31 -14 63 -23 70 -20
10 4 14 24 14 66 l0 61 -55 25 c-60 26 -68 28 -78 17z m93 -93 c0 -28 -1 -29
-30 -19 -24 9 -30 17 -30 39 0 28 1 29 30 19 24 -9 30 -17 30 -39z"/>
<path d="M753 335 c-71 -33 -88 -50 -60 -61 21 -8 170 63 165 78 -8 22 -30 18
-105 -17z"/>
<path d="M753 255 c-71 -33 -88 -50 -60 -61 21 -8 170 63 165 78 -8 22 -30 18
-105 -17z"/>
</g>
</svg>
