<?xml version="1.0" standalone="no"?>
<!DOCTYPE svg PUBLIC "-//W3C//DTD SVG 20010904//EN"
 "http://www.w3.org/TR/2001/REC-SVG-20010904/DTD/svg10.dtd">
<svg version="1.0" xmlns="http://www.w3.org/2000/svg"
 width="838.000000pt" height="712.000000pt" viewBox="0 0 838.000000 712.000000"
 preserveAspectRatio="xMidYMid meet">

<g transform="translate(0.000000,712.000000) scale(0.100000,-0.100000)"
fill="#000000" stroke="none">
<path d="M4055 6120 c-11 -4 -33 -22 -50 -40 l-30 -31 -3 -395 c-1 -217 -5
-394 -8 -394 -3 0 -32 23 -65 51 -49 44 -67 53 -107 57 -59 5 -105 -15 -132
-61 -25 -40 -26 -113 -2 -148 31 -48 378 -337 417 -348 53 -14 97 3 173 67
292 246 332 283 342 323 25 92 -40 179 -135 179 -45 0 -66 -11 -136 -71 -31
-27 -59 -49 -63 -49 -3 0 -6 174 -6 386 0 370 -1 388 -20 419 -33 54 -116 80
-175 55z"/>
<path d="M3359 4446 c-394 -116 -725 -218 -734 -226 -18 -15 -251 -359 -352
-519 -45 -72 -53 -92 -53 -133 0 -39 6 -54 30 -82 39 -43 69 -53 198 -61 l102
-7 0 -512 c0 -489 1 -512 20 -543 10 -18 32 -39 49 -47 41 -22 1463 -446 1493
-446 44 0 1488 437 1510 457 48 44 48 40 48 577 0 278 4 507 8 510 4 2 52 8
107 11 159 11 217 51 217 152 0 42 -13 65 -196 339 -108 161 -206 300 -219
308 -33 22 -1445 436 -1482 435 -16 0 -352 -96 -746 -213z m398 -481 c-116
-323 -121 -335 -146 -335 -66 1 -982 68 -987 73 -3 3 36 68 87 144 l93 139
525 156 c290 86 531 156 537 157 6 1 -43 -150 -109 -334z m1140 175 l522 -154
95 -142 95 -142 -47 -6 c-77 -9 -973 -69 -976 -65 -6 7 -236 654 -236 663 0 4
6 6 13 4 6 -3 247 -74 534 -158z m-929 -1563 l-3 -373 -567 170 -568 170 0
429 0 429 38 -6 c91 -13 880 -59 906 -52 53 13 79 54 136 211 l55 150 3 -378
c1 -207 1 -545 0 -750z m346 969 c25 -70 52 -136 60 -148 27 -39 68 -58 124
-58 54 0 742 45 840 55 l52 5 0 -428 0 -429 -555 -166 c-305 -92 -561 -167
-570 -167 -13 0 -15 85 -15 748 0 475 4 741 10 731 5 -9 30 -73 54 -143z"/>
</g>
</svg>
