<svg xmlns="http://www.w3.org/2000/svg" xmlns:xlink="http://www.w3.org/1999/xlink" width="500" zoomAndPan="magnify" viewBox="0 0 375 374.999991" height="500" preserveAspectRatio="xMidYMid meet" version="1.0"><defs><clipPath id="313db3198c"><path d="M 51.523438 33 L 323.773438 33 L 323.773438 277 L 51.523438 277 Z M 51.523438 33 " clip-rule="nonzero"/></clipPath><clipPath id="1b05287e81"><path d="M 268.171875 27.730469 L 349.921875 27.730469 L 349.921875 109.480469 L 268.171875 109.480469 Z M 268.171875 27.730469 " clip-rule="nonzero"/></clipPath></defs><rect x="-37.5" width="450" fill="#ffffff" y="-37.499999" height="449.999989" fill-opacity="1"/><g clip-path="url(#313db3198c)"><path fill="#000000" d="M 139.367188 49.21875 L 102.570312 64.320312 L 102.570312 96.4375 L 90.871094 101.332031 C 81.9375 104.945312 76.195312 109.625 65.347656 121.960938 C 57.691406 130.683594 51.523438 138.765625 51.523438 139.828125 C 51.523438 141.105469 57.265625 144.722656 64.285156 148.335938 L 77.046875 154.71875 L 77.472656 189.175781 L 78.109375 223.628906 L 132.984375 250.21875 L 187.648438 276.59375 L 240.398438 251.492188 C 269.324219 237.457031 294.207031 225.332031 295.699219 224.269531 C 297.613281 222.78125 298.25 212.996094 298.25 188.535156 L 298.25 154.71875 L 311.222656 148.335938 C 318.242188 144.722656 323.773438 140.890625 323.347656 139.617188 C 322.921875 138.550781 316.96875 130.683594 309.949219 121.960938 C 298.886719 108.773438 295.273438 105.796875 282.9375 100.691406 L 268.472656 94.738281 L 268.472656 64.320312 L 224.230469 48.796875 C 199.984375 40.289062 179.351562 33.480469 178.078125 33.695312 C 177.011719 33.90625 159.359375 40.710938 139.367188 49.21875 Z M 217.851562 55.8125 C 235.929688 61.980469 248.90625 67.726562 247.203125 68.363281 C 245.5 69 237.207031 71.980469 228.699219 74.742188 L 213.597656 79.847656 L 183.394531 66.875 L 152.980469 53.6875 L 165.527344 47.945312 C 172.546875 44.753906 179.777344 42.628906 181.691406 43.265625 C 183.820312 43.902344 200.195312 49.433594 217.851562 55.8125 Z M 171.910156 70.914062 C 187.011719 77.507812 199.558594 83.25 199.984375 83.464844 C 200.410156 83.890625 194.878906 86.015625 187.859375 88.355469 L 175.097656 92.609375 L 147.449219 80.699219 C 132.132812 74.105469 119.585938 68.152344 119.585938 67.511719 C 119.585938 66.023438 136.601562 59.429688 141.066406 59.21875 C 142.980469 59.003906 156.808594 64.320312 171.910156 70.914062 Z M 153.191406 92.398438 L 170.632812 99.84375 L 170.632812 119.835938 C 170.632812 130.894531 169.996094 139.828125 169.144531 139.828125 C 168.292969 139.828125 154.894531 134.722656 139.367188 128.554688 L 111.078125 117.496094 L 111.078125 73.894531 L 123.414062 79.421875 C 130.007812 82.402344 143.40625 88.144531 153.191406 92.398438 Z M 259.539062 96.652344 L 258.902344 119.410156 L 238.90625 127.492188 C 227.847656 131.960938 218.488281 135.574219 218.0625 135.574219 C 217.636719 135.574219 217.425781 124.726562 217.425781 111.539062 L 217.425781 87.503906 L 237.207031 80.914062 C 247.839844 77.296875 257.625 74.105469 258.476562 74.105469 C 259.328125 73.894531 259.75 84.101562 259.539062 96.652344 Z M 208.917969 115.15625 L 208.917969 139.191406 L 198.070312 143.871094 C 180.84375 150.890625 179.140625 148.761719 179.140625 122.175781 L 179.140625 100.265625 L 192.539062 95.800781 C 199.773438 93.25 206.367188 91.121094 207.429688 91.121094 C 208.28125 90.910156 208.917969 101.757812 208.917969 115.15625 Z M 278.042969 111.539062 C 272.089844 115.792969 268.472656 114.945312 268.472656 109.199219 C 268.472656 104.097656 268.898438 104.097656 275.277344 106.222656 C 281.445312 108.351562 281.660156 108.773438 278.042969 111.539062 Z M 102.570312 110.050781 C 102.570312 113.878906 101.933594 114.09375 98.101562 111.964844 C 94.488281 110.050781 94.0625 109.199219 96.402344 107.710938 C 101.082031 104.734375 102.570312 105.371094 102.570312 110.050781 Z M 131.710938 134.9375 C 157.871094 145.144531 179.140625 154.292969 179.140625 154.929688 C 179.140625 155.566406 174.035156 161.738281 167.867188 168.542969 L 156.382812 181.089844 L 110.441406 160.035156 C 85.128906 148.335938 64.285156 138.339844 64.285156 137.488281 C 64.285156 135.574219 81.300781 116.433594 83.003906 116.433594 C 83.851562 116.21875 105.761719 124.726562 131.710938 134.9375 Z M 302.289062 126.214844 C 307.183594 131.746094 311.011719 136.851562 311.011719 137.703125 C 311.011719 138.550781 290.378906 148.550781 264.855469 160.246094 L 218.914062 181.089844 L 207.429688 168.753906 C 201.261719 161.738281 196.15625 155.566406 196.15625 154.929688 C 196.15625 153.441406 287.191406 116.644531 291.230469 116.644531 C 292.507812 116.433594 297.613281 120.898438 302.289062 126.214844 Z M 123.203125 175.347656 L 158.507812 191.726562 L 170.84375 178.113281 L 183.394531 164.289062 L 183.394531 265.105469 L 134.472656 241.285156 L 85.554688 217.675781 L 85.554688 188.324219 C 85.554688 172.160156 85.980469 158.972656 86.617188 158.972656 C 87.257812 158.972656 103.632812 166.414062 123.203125 175.347656 Z M 289.742188 188.535156 C 289.742188 210.230469 289.105469 218.3125 287.191406 219.164062 C 285.699219 219.800781 263.582031 230.4375 238.269531 242.773438 L 191.902344 265.105469 L 191.902344 164.289062 L 204.449219 178.113281 L 216.789062 191.726562 L 251.667969 175.5625 C 270.8125 166.628906 287.191406 159.183594 288.253906 159.183594 C 289.105469 158.972656 289.742188 172.371094 289.742188 188.535156 Z M 289.742188 188.535156 " fill-opacity="1" fill-rule="nonzero"/></g><path fill="#000000" d="M 146.597656 205.125 C 145.746094 205.765625 145.109375 212.144531 145.109375 218.953125 L 145.109375 231.5 L 157.019531 236.816406 C 163.613281 239.796875 170.417969 241.710938 171.910156 241.070312 C 174.035156 240.222656 174.886719 235.96875 174.886719 227.035156 L 174.886719 214.058594 L 163.1875 208.742188 C 150.425781 203.210938 148.726562 202.785156 146.597656 205.125 Z M 166.378906 224.90625 C 166.378906 230.863281 166.164062 231.074219 159.996094 228.949219 C 154.894531 227.035156 153.617188 225.332031 153.617188 220.652344 C 153.617188 214.699219 153.828125 214.484375 159.996094 216.613281 C 165.101562 218.527344 166.378906 220.226562 166.378906 224.90625 Z M 166.378906 224.90625 " fill-opacity="1" fill-rule="nonzero"/><path fill="#000000" d="M 211.683594 219.589844 C 196.582031 226.609375 192.964844 230.222656 198.921875 232.5625 C 203.386719 234.265625 235.078125 219.164062 234.015625 215.972656 C 232.3125 211.292969 227.636719 212.144531 211.683594 219.589844 Z M 211.683594 219.589844 " fill-opacity="1" fill-rule="nonzero"/><path fill="#000000" d="M 211.683594 236.605469 C 196.582031 243.625 192.964844 247.238281 198.921875 249.578125 C 203.386719 251.28125 235.078125 236.179688 234.015625 232.988281 C 232.3125 228.308594 227.636719 229.160156 211.683594 236.605469 Z M 211.683594 236.605469 " fill-opacity="1" fill-rule="nonzero"/><g clip-path="url(#1b05287e81)"><path fill="#000000" d="M 309.046875 27.730469 C 286.507812 27.730469 268.171875 46.066406 268.171875 68.605469 C 268.171875 91.144531 286.507812 109.480469 309.046875 109.480469 C 331.585938 109.480469 349.921875 91.144531 349.921875 68.605469 C 349.921875 46.066406 331.585938 27.730469 309.046875 27.730469 Z M 309.046875 104.03125 C 289.511719 104.03125 273.621094 88.140625 273.621094 68.605469 C 273.621094 49.070312 289.511719 33.179688 309.046875 33.179688 C 328.582031 33.179688 344.472656 49.070312 344.472656 68.605469 C 344.472656 88.140625 328.582031 104.03125 309.046875 104.03125 Z M 309.046875 104.03125 " fill-opacity="1" fill-rule="nonzero"/></g><path fill="#000000" d="M 323.304688 65.882812 L 311.773438 65.882812 L 311.773438 54.347656 C 311.773438 52.84375 310.550781 51.625 309.046875 51.625 C 307.542969 51.625 306.320312 52.84375 306.320312 54.347656 L 306.320312 65.882812 L 294.789062 65.882812 C 293.285156 65.882812 292.066406 67.101562 292.066406 68.605469 C 292.066406 70.109375 293.285156 71.332031 294.789062 71.332031 L 306.320312 71.332031 L 306.320312 82.863281 C 306.320312 84.367188 307.542969 85.589844 309.046875 85.589844 C 310.550781 85.589844 311.773438 84.367188 311.773438 82.863281 L 311.773438 71.332031 L 323.304688 71.332031 C 324.808594 71.332031 326.027344 70.109375 326.027344 68.605469 C 326.027344 67.101562 324.808594 65.882812 323.304688 65.882812 Z M 323.304688 65.882812 " fill-opacity="1" fill-rule="nonzero"/></svg>