<?xml version="1.0" encoding="utf-8"?>
<!-- Generator: Adobe Illustrator 26.2.1, SVG Export Plug-In . SVG Version: 6.00 Build 0)  -->
<svg version="1.1" id="Layer_1" xmlns="http://www.w3.org/2000/svg" xmlns:xlink="http://www.w3.org/1999/xlink" x="0px" y="0px"
	 viewBox="0 0 838 712" style="enable-background:new 0 0 838 712;" xml:space="preserve">
<g transform="translate(0.000000,712.000000) scale(0.100000,-0.100000)">
	<path d="M4383.1,5986.1c-11.1-6.2-22.7-15.4-22.8-15.4c-9-7.6-18.8-17-27.2-26.4l-30-32.4c-0.6-82.2-1.2-164.4-1.8-246.7
		c-0.4-55.4-0.8-110.8-1.2-166.2c-13.8-124.4-1.9-222.2-3.2-291c-1.5-74.6-3.2-120.9-4.8-120.9c-3,0-32,24-65,53.3
		c-49,46-67,55.4-107,59.6c-59,5.2-105-15.7-132-63.8c-25-41.8-26-118.1-2-154.7c31-50.2,378-352.2,417-363.7c53-14.6,97,3.1,173,70
		c292,257.1,332,295.8,342,337.6c25,96.2-40,187.1-135,187.1c-45,0-66-11.5-136-74.2c-31-28.2-59-51.2-63-51.2c-3,0-6,181.9-6,403.5
		c0,0,39,298.7-13.2,424.6c-0.5,1.2-2.8,6.6-6.8,13.3C4519,5994.4,4420.7,6007.1,4383.1,5986.1z"/>
	<path d="M3283,4387.9c-394-116-725-218-734-226c-18-15-251-359-352-519c-45-72-53-92-53-133c0-39,6-54,30-82c39-43,69-53,198-61
		l102-7v-512c0-489,1-512,20-543c10-18,32-39,49-47c41-22,1463-446,1493-446c44,0,1488,437,1510,457c48,44,48,40,48,577
		c0,278,4,507,8,510c4,2,52,8,107,11c159,11,217,51,217,152c0,42-13,65-196,339c-108,161-206,300-219,308c-33,22-1445,436-1482,435
		C4013,4600.9,3677,4504.9,3283,4387.9z M3681,3906.9c-116-323-121-335-146-335c-66,1-982,68-987,73c-3,3,36,68,87,144l93,139
		l525,156c290,86,531,156,537,157S3747,4090.9,3681,3906.9z M4821,4081.9l522-154l95-142l95-142l-47-6c-77-9-973-69-976-65
		c-6,7-236,654-236,663c0,4,6,6,13,4C4293,4236.9,4534,4165.9,4821,4081.9z M3892,2518.9l-3-373l-567,170l-568,170v429v429l38-6
		c91-13,880-59,906-52c53,13,79,54,136,211l55,150l3-378C3893,3061.9,3893,2723.9,3892,2518.9z M4238,3487.9c25-70,52-136,60-148
		c27-39,68-58,124-58c54,0,742,45,840,55l52,5v-428v-429l-555-166c-305-92-561-167-570-167c-13,0-15,85-15,748c0,475,4,741,10,731
		C4189,3621.9,4214,3557.9,4238,3487.9z"/>
</g>
<path d="M397,169.8"/>
<path d="M355.5,249.5c1.1-0.6,2.3-1.5,2.3-1.5c0.9-0.8,1.9-1.7,2.7-2.6l3-3.2c0.1-8.2,0.1-16.4,0.2-24.6c0-5.5,0.1-11,0.1-16.6
	c1.4-12.4,0.2-22.1,0.3-29c0.1-7.4,0.3-12,0.5-12c0.3,0,3.2,2.4,6.5,5.3c4.9,4.6,6.7,5.5,10.7,5.9c5.9,0.5,10.5-1.6,13.2-6.4
	c2.5-4.2,2.6-11.8,0.2-15.4c-3.1-5-37.8-35.1-41.7-36.2c-5.3-1.5-9.7,0.3-17.3,7c-29.2,25.6-33.2,29.5-34.2,33.7
	c-2.5,9.6,4,18.6,13.5,18.6c4.5,0,6.6-1.1,13.6-7.4c3.1-2.8,5.9-5.1,6.3-5.1c0.3,0,0.6,18.1,0.6,40.2c0,0-3.9,29.8,1.3,42.3
	c0,0.1,0.3,0.7,0.7,1.3C341.9,250.4,351.7,251.6,355.5,249.5z"/>
</svg>
