<?xml version="1.0" standalone="no"?>
<!DOCTYPE svg PUBLIC "-//W3C//DTD SVG 20010904//EN"
 "http://www.w3.org/TR/2001/REC-SVG-20010904/DTD/svg10.dtd">
<svg version="1.0" xmlns="http://www.w3.org/2000/svg"
 width="800.000000pt" height="800.000000pt" viewBox="0 0 800.000000 800.000000"
 preserveAspectRatio="xMidYMid meet">

<g transform="translate(0.000000,800.000000) scale(0.100000,-0.100000)"
fill="#000000" stroke="none">
<path d="M3755 7994 c-894 -70 -1650 -369 -2315 -918 -185 -152 -457 -436
-609 -635 -753 -983 -1009 -2227 -705 -3436 195 -774 618 -1463 1231 -2006
915 -809 2137 -1150 3352 -934 243 43 480 109 741 207 156 58 526 245 680 343
610 390 1093 917 1420 1548 376 724 518 1533 415 2347 -151 1179 -809 2213
-1824 2867 -186 120 -529 291 -741 370 -288 107 -640 192 -945 228 -133 15
-586 28 -700 19z m670 -749 c732 -100 1363 -413 1891 -939 359 -359 609 -757
775 -1234 110 -319 165 -628 176 -992 33 -1179 -567 -2270 -1592 -2891 -181
-110 -492 -252 -647 -297 -18 -6 -80 -24 -138 -40 -133 -39 -311 -76 -465 -97
-160 -23 -535 -31 -706 -16 -583 52 -1132 252 -1604 585 -288 203 -591 508
-802 806 -321 455 -525 1026 -574 1606 -14 174 -6 526 16 689 68 504 245 975
518 1385 211 317 513 630 821 851 471 338 1045 551 1611 599 153 13 581 4 720
-15z"/>
<path d="M1698 4341 c-156 -61 -241 -181 -241 -341 0 -140 75 -262 200 -325
l58 -30 2285 0 2285 0 53 28 c75 39 124 87 163 159 33 60 34 68 34 168 0 100
-1 108 -34 168 -41 75 -94 125 -170 161 l-56 26 -2265 2 c-2177 2 -2267 1
-2312 -16z"/>
</g>
</svg>
