<?xml version="1.0" standalone="no"?>
<!DOCTYPE svg PUBLIC "-//W3C//DTD SVG 20010904//EN"
 "http://www.w3.org/TR/2001/REC-SVG-20010904/DTD/svg10.dtd">
<svg version="1.0" xmlns="http://www.w3.org/2000/svg"
 width="752.000000pt" height="752.000000pt" viewBox="0 0 752.000000 752.000000"
 preserveAspectRatio="xMidYMid meet">

<g transform="translate(0.000000,752.000000) scale(0.100000,-0.100000)"
fill="#000000" stroke="none">
<path d="M3686 5865 c-61 -42 -385 -324 -397 -346 -17 -33 -13 -109 8 -137 36
-48 71 -67 122 -66 51 0 59 5 150 82 l51 44 0 -390 c0 -388 0 -389 23 -423 58
-87 178 -88 234 -2 16 24 19 67 23 421 l5 393 57 -51 c56 -50 111 -80 145 -80
9 0 36 9 59 21 75 36 103 128 59 195 -18 28 -350 315 -396 343 -46 28 -98 27
-143 -4z"/>
<path d="M3016 4210 c-390 -115 -720 -217 -733 -225 -22 -15 -359 -510 -398
-584 -24 -47 -16 -123 16 -158 32 -34 79 -53 132 -53 24 0 72 -3 106 -6 l61
-7 0 -511 c0 -489 1 -512 20 -543 10 -18 32 -38 47 -46 41 -21 1465 -447 1494
-447 31 0 1446 423 1488 445 18 9 41 30 51 48 19 31 20 54 20 544 l0 511 98 6
c129 9 164 19 201 61 26 30 31 44 31 88 0 51 -4 58 -193 341 -105 159 -203
298 -218 308 -32 24 -1432 438 -1479 437 -19 0 -354 -94 -744 -209z m504 -159
c0 -10 -230 -654 -235 -659 -3 -4 -827 51 -962 64 l-62 5 95 143 95 143 177
52 c97 28 335 98 527 156 193 57 353 104 358 104 4 1 7 -3 7 -8z m1017 -147
c290 -85 531 -158 534 -162 4 -4 47 -68 97 -144 l91 -136 -57 -6 c-98 -10
-964 -68 -966 -64 -5 6 -236 653 -236 661 0 4 2 7 4 7 3 0 242 -70 533 -156z
m-919 -1567 l-3 -374 -567 171 -568 170 0 430 0 429 43 -6 c23 -3 234 -18 468
-33 l427 -28 40 26 c42 28 42 28 124 253 l33 90 3 -378 c1 -207 1 -545 0 -750z
m349 964 c53 -147 80 -186 139 -197 31 -6 739 36 882 52 l52 6 0 -429 0 -430
-525 -158 c-289 -86 -546 -163 -570 -171 l-45 -13 0 752 c0 461 4 746 9 737 6
-8 31 -75 58 -149z"/>
</g>
</svg>
