<svg xmlns="http://www.w3.org/2000/svg" xmlns:xlink="http://www.w3.org/1999/xlink" width="500" zoomAndPan="magnify" viewBox="0 0 375 374.999991" height="500" preserveAspectRatio="xMidYMid meet" version="1.0"><defs><clipPath id="0ff64a5789"><path d="M 71.375 70 L 303.875 70 L 303.875 278 L 71.375 278 Z M 71.375 70 " clip-rule="nonzero"/></clipPath><clipPath id="979c7b1fc2"><path d="M 254.308594 49.160156 L 344.308594 49.160156 L 344.308594 139.160156 L 254.308594 139.160156 Z M 254.308594 49.160156 " clip-rule="nonzero"/></clipPath></defs><rect x="-37.5" width="450" fill="#ffffff" y="-37.499999" height="449.999989" fill-opacity="1"/><g clip-path="url(#0ff64a5789)"><path fill="#000000" d="M 146.394531 83.824219 L 114.96875 96.722656 L 114.96875 124.148438 L 104.980469 128.328125 C 97.351562 131.414062 92.445312 135.410156 83.183594 145.945312 C 76.644531 153.394531 71.375 160.296875 71.375 161.203125 C 71.375 162.292969 76.28125 165.382812 82.273438 168.46875 L 93.171875 173.917969 L 93.535156 203.34375 L 94.082031 232.769531 L 140.945312 255.476562 L 187.625 278 L 232.671875 256.566406 C 257.375 244.578125 278.628906 234.222656 279.898438 233.316406 C 281.535156 232.042969 282.078125 223.6875 282.078125 202.800781 L 282.078125 173.917969 L 293.160156 168.46875 C 299.152344 165.382812 303.875 162.113281 303.511719 161.023438 C 303.148438 160.113281 298.0625 153.394531 292.070312 145.945312 C 282.625 134.683594 279.535156 132.140625 269 127.78125 L 256.648438 122.695312 L 256.648438 96.722656 L 218.867188 83.460938 C 198.160156 76.195312 180.542969 70.382812 179.453125 70.566406 C 178.542969 70.746094 163.46875 76.558594 146.394531 83.824219 Z M 213.417969 89.457031 C 228.859375 94.722656 239.9375 99.628906 238.484375 100.171875 C 237.03125 100.71875 229.949219 103.261719 222.683594 105.621094 L 209.785156 109.980469 L 183.992188 98.902344 L 158.019531 87.640625 L 168.734375 82.734375 C 174.730469 80.011719 180.90625 78.195312 182.539062 78.738281 C 184.355469 79.285156 198.34375 84.007812 213.417969 89.457031 Z M 174.183594 102.351562 C 187.082031 107.984375 197.796875 112.886719 198.160156 113.070312 C 198.523438 113.433594 193.800781 115.25 187.808594 117.246094 L 176.910156 120.878906 L 153.296875 110.707031 C 140.21875 105.078125 129.5 99.992188 129.5 99.445312 C 129.5 98.175781 144.03125 92.542969 147.847656 92.363281 C 149.480469 92.179688 161.289062 96.722656 174.183594 102.351562 Z M 158.199219 120.699219 L 173.09375 127.054688 L 173.09375 144.128906 C 173.09375 153.574219 172.550781 161.203125 171.824219 161.203125 C 171.097656 161.203125 159.652344 156.84375 146.394531 151.578125 L 122.234375 142.132812 L 122.234375 104.894531 L 132.769531 109.617188 C 138.402344 112.160156 149.84375 117.066406 158.199219 120.699219 Z M 249.019531 124.332031 L 248.476562 143.765625 L 231.402344 150.667969 C 221.957031 154.484375 213.964844 157.570312 213.601562 157.570312 C 213.238281 157.570312 213.054688 148.308594 213.054688 137.046875 L 213.054688 116.519531 L 229.949219 110.890625 C 239.03125 107.800781 247.386719 105.078125 248.113281 105.078125 C 248.839844 104.894531 249.203125 113.613281 249.019531 124.332031 Z M 205.789062 140.132812 L 205.789062 160.660156 L 196.527344 164.65625 C 181.8125 170.648438 180.359375 168.832031 180.359375 146.128906 L 180.359375 127.417969 L 191.804688 123.605469 C 197.980469 121.425781 203.609375 119.609375 204.519531 119.609375 C 205.246094 119.425781 205.789062 128.691406 205.789062 140.132812 Z M 264.824219 137.046875 C 259.738281 140.679688 256.648438 139.953125 256.648438 135.046875 C 256.648438 130.6875 257.011719 130.6875 262.460938 132.503906 C 267.730469 134.320312 267.910156 134.683594 264.824219 137.046875 Z M 114.96875 135.773438 C 114.96875 139.042969 114.425781 139.226562 111.15625 137.410156 C 108.066406 135.773438 107.703125 135.046875 109.703125 133.777344 C 113.699219 131.234375 114.96875 131.777344 114.96875 135.773438 Z M 139.855469 157.027344 C 162.195312 165.746094 180.359375 173.554688 180.359375 174.101562 C 180.359375 174.644531 176 179.914062 170.734375 185.726562 L 160.925781 196.441406 L 121.691406 178.460938 C 100.074219 168.46875 82.273438 159.933594 82.273438 159.207031 C 82.273438 157.570312 96.804688 141.222656 98.257812 141.222656 C 98.984375 141.042969 117.695312 148.308594 139.855469 157.027344 Z M 285.53125 149.578125 C 289.707031 154.300781 292.976562 158.660156 292.976562 159.386719 C 292.976562 160.113281 275.359375 168.652344 253.5625 178.640625 L 214.328125 196.441406 L 204.519531 185.90625 C 199.25 179.914062 194.890625 174.644531 194.890625 174.101562 C 194.890625 172.828125 272.632812 141.40625 276.085938 141.40625 C 277.175781 141.222656 281.535156 145.039062 285.53125 149.578125 Z M 132.589844 191.539062 L 162.742188 205.523438 L 173.277344 193.898438 L 183.992188 182.09375 L 183.992188 268.191406 L 142.214844 247.847656 L 100.4375 227.683594 L 100.4375 202.617188 C 100.4375 188.8125 100.800781 177.550781 101.347656 177.550781 C 101.890625 177.550781 115.878906 183.910156 132.589844 191.539062 Z M 274.8125 202.800781 C 274.8125 221.328125 274.269531 228.230469 272.632812 228.957031 C 271.363281 229.5 252.472656 238.582031 230.855469 249.117188 L 191.257812 268.191406 L 191.257812 182.09375 L 201.976562 193.898438 L 212.511719 205.523438 L 242.300781 191.71875 C 258.648438 184.089844 272.632812 177.734375 273.542969 177.734375 C 274.269531 177.550781 274.8125 188.996094 274.8125 202.800781 Z M 274.8125 202.800781 " fill-opacity="1" fill-rule="nonzero"/></g><path fill="#000000" d="M 152.570312 216.96875 C 151.84375 217.511719 151.296875 222.960938 151.296875 228.773438 L 151.296875 239.492188 L 161.46875 244.03125 C 167.101562 246.574219 172.914062 248.210938 174.183594 247.664062 C 176 246.9375 176.726562 243.304688 176.726562 235.675781 L 176.726562 224.597656 L 166.738281 220.054688 C 155.839844 215.332031 154.386719 214.96875 152.570312 216.96875 Z M 169.460938 233.859375 C 169.460938 238.945312 169.28125 239.128906 164.011719 237.3125 C 159.652344 235.675781 158.5625 234.222656 158.5625 230.226562 C 158.5625 225.140625 158.746094 224.960938 164.011719 226.777344 C 168.371094 228.410156 169.460938 229.863281 169.460938 233.859375 Z M 169.460938 233.859375 " fill-opacity="1" fill-rule="nonzero"/><path fill="#000000" d="M 208.152344 229.320312 C 195.253906 235.3125 192.167969 238.402344 197.253906 240.398438 C 201.066406 241.851562 228.132812 228.957031 227.222656 226.230469 C 225.769531 222.234375 221.773438 222.960938 208.152344 229.320312 Z M 208.152344 229.320312 " fill-opacity="1" fill-rule="nonzero"/><path fill="#000000" d="M 208.152344 243.851562 C 195.253906 249.84375 192.167969 252.933594 197.253906 254.929688 C 201.066406 256.382812 228.132812 243.488281 227.222656 240.761719 C 225.769531 236.765625 221.773438 237.492188 208.152344 243.851562 Z M 208.152344 243.851562 " fill-opacity="1" fill-rule="nonzero"/><g clip-path="url(#979c7b1fc2)"><path stroke-linecap="round" transform="matrix(0.460123, 0, 0, 0.460123, 253.29444, 48.147386)" fill="none" stroke-linejoin="miter" d="M 189.81542 100.001101 C 189.81542 102.938497 189.671097 105.875893 189.382451 108.8048 C 189.093806 111.733706 188.660837 114.637144 188.092035 117.523603 C 187.514743 120.410062 186.801618 123.254072 185.952659 126.072614 C 185.095211 128.891156 184.10193 131.650271 182.981305 134.366938 C 181.85219 137.092095 180.595732 139.740845 179.211929 142.338658 C 177.828127 144.936471 176.316981 147.449388 174.678491 149.902878 C 173.048491 152.347878 171.291147 154.707982 169.431928 156.974702 C 167.56422 159.24991 165.586146 161.431733 163.506198 163.511682 C 161.42625 165.59163 159.252916 167.561213 156.977708 169.428922 C 154.702499 171.29663 152.342395 173.045485 149.897394 174.675485 C 147.452394 176.313975 144.930988 177.825121 142.341664 179.208923 C 139.743852 180.601215 137.086612 181.857673 134.369945 182.978299 C 131.653278 184.107413 128.885673 185.092205 126.075621 185.949653 C 123.257079 186.798612 120.404578 187.520226 117.51812 188.089028 C 114.64015 188.66632 111.728223 189.099289 108.799316 189.379445 C 105.878899 189.668091 102.941503 189.812414 100.004107 189.812414 C 97.058221 189.812414 94.120825 189.668091 91.200408 189.379445 C 88.271501 189.099289 85.359574 188.66632 82.481605 188.089028 C 79.595146 187.520226 76.742646 186.798612 73.924104 185.949653 C 71.114051 185.092205 68.346447 184.107413 65.62978 182.978299 C 62.913113 181.857673 60.255873 180.601215 57.65806 179.208923 C 55.068737 177.825121 52.54733 176.313975 50.10233 174.675485 C 47.65733 173.045485 45.297225 171.29663 43.022016 169.428922 C 40.746808 167.561213 38.573474 165.59163 36.493526 163.511682 C 34.413578 161.431733 32.435505 159.24991 30.567796 156.974702 C 28.708577 154.707982 26.951233 152.347878 25.321233 149.902878 C 23.682743 147.449388 22.180087 144.936471 20.787795 142.338658 C 19.403993 139.740845 18.147534 137.092095 17.018419 134.366938 C 15.897794 131.650271 14.904513 128.891156 14.055555 126.072614 C 13.198107 123.254072 12.484981 120.410062 11.90769 117.523603 C 11.338888 114.637144 10.905919 111.733706 10.617273 108.8048 C 10.328627 105.875893 10.184304 102.938497 10.184304 100.001101 C 10.184304 97.055215 10.328627 94.126308 10.617273 91.197402 C 10.905919 88.268495 11.338888 85.365057 11.90769 82.478598 C 12.484981 79.59214 13.198107 76.739639 14.055555 73.929587 C 14.904513 71.111045 15.897794 68.34344 17.018419 65.626773 C 18.147534 62.910106 19.403993 60.252867 20.787795 57.663543 C 22.180087 55.06573 23.682743 52.544324 25.321233 50.099324 C 26.951233 47.654323 28.708577 45.294219 30.567796 43.01901 C 32.435505 40.743802 34.413578 38.570468 36.493526 36.49052 C 38.573474 34.410572 40.746808 32.440988 43.022016 30.573279 C 45.297225 28.705571 47.65733 26.956717 50.10233 25.318227 C 52.54733 23.688227 55.068737 22.17708 57.65806 20.793278 C 60.255873 19.400986 62.913113 18.144528 65.62978 17.023903 C 68.346447 15.894788 71.114051 14.901507 73.924104 14.052548 C 76.742646 13.1951 79.595146 12.481975 82.481605 11.913173 C 85.359574 11.335881 88.271501 10.902912 91.200408 10.614267 C 94.120825 10.325621 97.058221 10.181298 100.004107 10.181298 C 102.941503 10.181298 105.878899 10.325621 108.799316 10.614267 C 111.728223 10.902912 114.64015 11.335881 117.51812 11.913173 C 120.404578 12.481975 123.257079 13.1951 126.075621 14.052548 C 128.885673 14.901507 131.653278 15.894788 134.369945 17.023903 C 137.086612 18.144528 139.743852 19.400986 142.341664 20.793278 C 144.930988 22.17708 147.452394 23.688227 149.897394 25.318227 C 152.342395 26.956717 154.702499 28.705571 156.977708 30.573279 C 159.252916 32.440988 161.42625 34.410572 163.506198 36.49052 C 165.586146 38.570468 167.56422 40.743802 169.431928 43.01901 C 171.291147 45.294219 173.048491 47.654323 174.678491 50.099324 C 176.316981 52.544324 177.828127 55.06573 179.211929 57.663543 C 180.595732 60.252867 181.85219 62.910106 182.981305 65.626773 C 184.10193 68.34344 185.095211 71.111045 185.952659 73.929587 C 186.801618 76.739639 187.514743 79.59214 188.092035 82.478598 C 188.660837 85.365057 189.093806 88.268495 189.382451 91.197402 C 189.671097 94.126308 189.81542 97.055215 189.81542 100.001101 Z M 189.81542 100.001101 " stroke="#000000" stroke-width="16" stroke-opacity="1" stroke-miterlimit="10"/></g><path stroke-linecap="round" transform="matrix(0.460123, 0, 0, 0.460123, 253.29444, 48.147386)" fill="none" stroke-linejoin="round" d="M 143.538696 100.001101 L 56.461029 100.001101 " stroke="#000000" stroke-width="20" stroke-opacity="1" stroke-miterlimit="10"/><path stroke-linecap="round" transform="matrix(0.460123, 0, 0, 0.460123, 253.29444, 48.147386)" fill="none" stroke-linejoin="round" d="M 143.538696 100.001101 L 56.461029 100.001101 " stroke="#000000" stroke-width="20" stroke-opacity="1" stroke-miterlimit="10"/></svg>